<svg id="Layer_1" data-name="Layer 1" xmlns="http://www.w3.org/2000/svg" viewBox="0 0 1223.68 156"><defs><style>.cls-1{stroke:#000;stroke-miterlimit:10;}.cls-2{fill:#f3685f;}.cls-3{fill:#262626;}</style></defs><title>fullLogo</title><path class="cls-1" d="M154.82,113.64V40.36h22.34q13.44,0,22.22,9t8.78,23v9.41q0,14-8.78,23t-22.22,8.94Zm6-68.14v63.05h16.3a23.36,23.36,0,0,0,17.92-7.6q7-7.59,7-19.22V72.17q0-11.48-7.07-19.07a23.35,23.35,0,0,0-17.89-7.6Z" transform="translate(0 -2)"/><path class="cls-1" d="M279.77,40.36V89q0,12.07-7.4,18.87t-19,6.79q-11.47,0-18.75-6.82T227.33,89V40.36h6V89q0,9.45,5.61,15t14.37,5.56q9,0,14.69-5.54t5.74-15V40.36Z" transform="translate(0 -2)"/><path class="cls-1" d="M342.87,95.82a11.52,11.52,0,0,0-4.48-9.31q-4.47-3.67-15.2-6.89-11.71-3.23-17.84-8a15.74,15.74,0,0,1-6.11-13.06,16.85,16.85,0,0,1,6.84-13.81q6.85-5.41,17.47-5.41,11.16,0,18,6.11A19.36,19.36,0,0,1,348.1,61l-.1.3h-5.63a15.6,15.6,0,0,0-5.26-12q-5.26-4.78-13.56-4.78-8.57,0-13.41,4.05a12.48,12.48,0,0,0-4.86,9.94,11.34,11.34,0,0,0,4.4,9.18q4.41,3.6,15.53,6.72,11.57,3.38,17.66,8.31A16,16,0,0,1,349,95.72a16.24,16.24,0,0,1-7.12,13.76q-7.12,5.22-17.94,5.21A32.63,32.63,0,0,1,305,109.18q-8.05-5.5-7.8-16.08l.1-.3h5.58q0,8.51,6.4,12.66a26.16,26.16,0,0,0,14.59,4.15q8.4,0,13.69-3.85A11.8,11.8,0,0,0,342.87,95.82Z" transform="translate(0 -2)"/><path class="cls-1" d="M406.22,93.2H374.07l-7.4,20.44h-6.24l26.92-73.28H393l26.72,73.28h-6.24ZM376,87.82h28.28L390.37,49h-.3Z" transform="translate(0 -2)"/><path class="cls-1" d="M489.2,113.64h-6L441.55,50.93l-.3,0v62.66h-6V40.36h6l41.61,62.56.3,0V40.36h6Z" transform="translate(0 -2)"/><path class="cls-1" d="M595.23,113.64h-6L547.57,50.93l-.3,0v62.66h-6V40.36h6l41.62,62.56.3,0V40.36h6Z" transform="translate(0 -2)"/><path class="cls-1" d="M657,78.16H624.11v30.39h38v5.09h-44V40.36h43.78V45.5H624.11V73H657Z" transform="translate(0 -2)"/><path class="cls-1" d="M679,113.64V40.36h22.34q13.44,0,22.22,9t8.78,23v9.41q0,14-8.78,23t-22.22,8.94Zm6-68.14v63.05h16.3a23.36,23.36,0,0,0,17.92-7.6q7-7.59,7-19.22V72.17q0-11.48-7.07-19.07a23.37,23.37,0,0,0-17.89-7.6Z" transform="translate(0 -2)"/><path class="cls-1" d="M791.38,78.16H758.51v30.39h38v5.09h-44V40.36h43.78V45.5H758.51V73h32.87Z" transform="translate(0 -2)"/><path class="cls-1" d="M819.45,108.55H857.3v5.09H813.41V40.36h6Z" transform="translate(0 -2)"/><path class="cls-1" d="M906.21,40.36h6v52q0,10.21-6,16.25t-15.42,6q-10.07,0-16-5.33t-5.63-15.6l.1-.3H875q0,8.25,4.06,12.2t11.8,4a14.38,14.38,0,0,0,11-4.66q4.32-4.65,4.33-12.55Z" transform="translate(0 -2)"/><path class="cls-1" d="M948.83,78.86h-7.9v34.78h-6V40.36h6V73.78h7.85l28.78-33.42h6.84l.11.26-30.4,35.22,33.41,37.54-.1.26h-7.24Z" transform="translate(0 -2)"/><path class="cls-1" d="M1054.65,83q0,14.19-7.77,23T1026,114.69q-12.88,0-20.56-8.75t-7.67-23V71.06q0-14.13,7.65-23t20.53-8.8q13.08,0,20.88,8.8t7.8,23Zm-6-12q0-11.88-6-19.12T1026,44.59q-10.47,0-16.31,7.25T1003.83,71V83q0,12,5.86,19.22t16.33,7.25q10.71,0,16.68-7.22t6-19.25Z" transform="translate(0 -2)"/><path class="cls-1" d="M1093.9,100.8l1.46,5.14h.3l1.46-5.14,22-60.44h6.49l-27.27,73.28h-5.74l-27.27-73.28h6.54Z" transform="translate(0 -2)"/><path class="cls-1" d="M1148.2,113.64h-6V40.36h6Z" transform="translate(0 -2)"/><path class="cls-1" d="M1223.07,90.74l.1.3q.21,10.77-7,17.21t-19,6.44q-12.24,0-19.73-8.83T1169.88,83V71.06q0-14,7.5-22.87t19.73-8.88q11.92,0,19.09,6.29t7,17.31l-.1.3h-5.63q0-8.85-5.41-13.81t-14.92-5a18.6,18.6,0,0,0-15.43,7.45q-5.81,7.44-5.81,19.07V83q0,11.78,5.81,19.2a18.62,18.62,0,0,0,15.43,7.42q9.51,0,14.92-4.83t5.41-14Z" transform="translate(0 -2)"/><polygon class="cls-2" points="0 54.35 59.55 104.68 0 156 0 54.35"/><polygon class="cls-3" points="91.39 77.21 74.05 92.17 0 29.58 0 0 91.39 77.21"/></svg>