<svg id="Layer_1" data-name="Layer 1" xmlns="http://www.w3.org/2000/svg" viewBox="0 0 1069.36 76.38"><defs><style>.cls-1{stroke:#000;stroke-miterlimit:10;}</style></defs><title>logotext</title><path class="cls-1" d="M8.82,77.64V4.36H31.16q13.44,0,22.22,9t8.78,23v9.41q0,14-8.78,23T31.16,77.64Zm6-68.14V72.55h16.3A23.36,23.36,0,0,0,49.08,65q7.05-7.59,7-19.22V36.17q0-11.48-7.07-19.07A23.35,23.35,0,0,0,31.16,9.5Z" transform="translate(-8.32 -2.81)"/><path class="cls-1" d="M133.77,4.36V53q0,12.07-7.4,18.87t-19,6.79q-11.47,0-18.75-6.82T81.33,53V4.36h6V53q0,9.45,5.61,15t14.37,5.56q9,0,14.69-5.54t5.74-15V4.36Z" transform="translate(-8.32 -2.81)"/><path class="cls-1" d="M196.87,59.82a11.52,11.52,0,0,0-4.48-9.31q-4.47-3.67-15.2-6.89-11.72-3.23-17.84-8a15.74,15.74,0,0,1-6.11-13.06,16.85,16.85,0,0,1,6.84-13.81q6.85-5.42,17.47-5.41,11.16,0,18,6.11A19.36,19.36,0,0,1,202.1,25l-.1.3h-5.63a15.6,15.6,0,0,0-5.26-12q-5.27-4.79-13.56-4.78-8.56,0-13.41,4.05a12.48,12.48,0,0,0-4.86,9.94,11.34,11.34,0,0,0,4.4,9.18q4.41,3.6,15.53,6.72,11.56,3.38,17.66,8.31A16,16,0,0,1,203,59.72a16.24,16.24,0,0,1-7.12,13.76q-7.12,5.22-17.94,5.21A32.63,32.63,0,0,1,159,73.18q-8.06-5.5-7.8-16.08l.1-.3h5.58q0,8.51,6.4,12.66a26.16,26.16,0,0,0,14.59,4.15q8.4,0,13.69-3.85A11.8,11.8,0,0,0,196.87,59.82Z" transform="translate(-8.32 -2.81)"/><path class="cls-1" d="M260.22,57.2H228.07l-7.4,20.44h-6.24L241.35,4.36H247l26.72,73.28h-6.24ZM230,51.82h28.28L244.37,13h-.3Z" transform="translate(-8.32 -2.81)"/><path class="cls-1" d="M343.2,77.64h-6L295.55,14.93l-.3.05V77.64h-6V4.36h6l41.61,62.56.3,0V4.36h6Z" transform="translate(-8.32 -2.81)"/><path class="cls-1" d="M449.23,77.64h-6L401.57,14.93l-.3.05V77.64h-6V4.36h6l41.62,62.56.3,0V4.36h6Z" transform="translate(-8.32 -2.81)"/><path class="cls-1" d="M511,42.16H478.11V72.55h38v5.09h-44V4.36h43.78V9.5H478.11V37H511Z" transform="translate(-8.32 -2.81)"/><path class="cls-1" d="M533,77.64V4.36h22.34q13.44,0,22.22,9t8.78,23v9.41q0,14-8.78,23t-22.22,8.94Zm6-68.14V72.55h16.3A23.36,23.36,0,0,0,573.27,65q7-7.59,7-19.22V36.17q0-11.48-7.07-19.07a23.37,23.37,0,0,0-17.89-7.6Z" transform="translate(-8.32 -2.81)"/><path class="cls-1" d="M645.38,42.16H612.51V72.55h38v5.09h-44V4.36h43.78V9.5H612.51V37h32.87Z" transform="translate(-8.32 -2.81)"/><path class="cls-1" d="M673.45,72.55H711.3v5.09H667.41V4.36h6Z" transform="translate(-8.32 -2.81)"/><path class="cls-1" d="M760.21,4.36h6v52q0,10.22-6,16.25t-15.42,6q-10.07,0-16-5.33t-5.63-15.6l.1-.3H729q0,8.25,4.06,12.2t11.8,4a14.38,14.38,0,0,0,11-4.66q4.32-4.65,4.33-12.55Z" transform="translate(-8.32 -2.81)"/><path class="cls-1" d="M802.83,42.86h-7.9V77.64h-6V4.36h6V37.78h7.85L831.56,4.36h6.84l.11.26-30.4,35.22,33.41,37.54-.1.26h-7.24Z" transform="translate(-8.32 -2.81)"/><path class="cls-1" d="M908.65,47q0,14.19-7.77,22.95T880,78.69q-12.88,0-20.56-8.75T851.79,47V35.06q0-14.13,7.65-23T880,3.31q13.08,0,20.88,8.8t7.8,23Zm-6-12q0-11.88-6-19.12T880,8.59q-10.47,0-16.31,7.25T857.83,35V47q0,12,5.86,19.22T880,73.46q10.71,0,16.68-7.22t6-19.25Z" transform="translate(-8.32 -2.81)"/><path class="cls-1" d="M947.9,64.8l1.46,5.14h.3l1.46-5.14,22-60.44h6.49L952.38,77.64h-5.74L919.37,4.36h6.54Z" transform="translate(-8.32 -2.81)"/><path class="cls-1" d="M1002.2,77.64h-6V4.36h6Z" transform="translate(-8.32 -2.81)"/><path class="cls-1" d="M1077.07,54.74l.1.3q.21,10.77-7,17.21t-19,6.44q-12.24,0-19.73-8.83T1023.88,47V35.06q0-14,7.5-22.87t19.73-8.88q11.92,0,19.09,6.29t7,17.31l-.1.3h-5.63q0-8.85-5.41-13.81t-14.92-5a18.6,18.6,0,0,0-15.43,7.45q-5.81,7.44-5.81,19.07V47q0,11.77,5.81,19.2a18.62,18.62,0,0,0,15.43,7.42q9.51,0,14.92-4.83t5.41-14Z" transform="translate(-8.32 -2.81)"/></svg>