<svg id="adobe-xd" xmlns="http://www.w3.org/2000/svg" width="80.753" height="78.734" viewBox="0 0 80.753 78.734">
  <path id="Path_596" data-name="Path 596" d="M10,10H84.024V82H10Z" transform="translate(-7 -7)" fill="#fff"/>
  <path id="Path_597" data-name="Path 597" d="M0,0V78.734H80.753V0ZM3.365,3.365H77.388v72H3.365Z" fill="#f3685f"/>
  <path id="Path_598" data-name="Path 598" d="M86.717,69.263a4.415,4.415,0,0,0-1.865-.322c-4.052,0-6.753,3.119-6.753,8.3,0,5.917,2.765,8.3,6.367,8.3a6.066,6.066,0,0,0,2.219-.354V69.263ZM72.311,77.494c0-7.492,4.823-13.345,12.734-13.345a14.26,14.26,0,0,1,1.672.064v-8.36a.322.322,0,0,1,.322-.322h5.177c.257,0,.322.1.322.257V85.18a22.9,22.9,0,0,0,.161,3.151c0,.225,0,.257-.193.354a19.154,19.154,0,0,1-8.232,1.865C77.3,90.55,72.311,86.241,72.311,77.494ZM61.346,72.285l9,17.46c.161.257.064.514-.193.514h-5.6a.631.631,0,0,1-.675-.418q-3.087-6.367-6.3-13.216H57.52c-1.929,4.309-4.052,9-6.11,13.248a.617.617,0,0,1-.579.354H45.494c-.322,0-.354-.257-.193-.45l8.811-16.946L45.59,55.982a.285.285,0,0,1,.225-.482h5.531c.322,0,.482.064.579.354,2.026,4.277,4.084,8.489,6.013,12.8H58c1.865-4.245,3.923-8.521,5.884-12.734.161-.257.257-.418.579-.418h5.177c.257,0,.354.193.193.482l-8.489,16.3Z" transform="translate(-28.105 -33.687)" fill="#f3685f"/>
</svg>
