<svg xmlns="http://www.w3.org/2000/svg" width="80.753" height="78.734" viewBox="0 0 80.753 78.734">
  <g id="adobe-illustrator-cc" transform="translate(0 -130.746)">
    <path id="Path_599" data-name="Path 599" d="M24.8,155.549H98.827v72H24.8Z" transform="translate(-21.438 -21.438)" fill="rgba(255,255,255,0.98)"/>
    <path id="Path_600" data-name="Path 600" d="M3.365,134.111H77.388v72H3.365ZM0,209.48H80.753V130.746H0Zm52.893-50.673c0-.269.1-.4.4-.4H58.58c.269,0,.4.1.4.4v26.548c0,.269-.067.4-.4.4H53.364c-.336,0-.437-.168-.437-.437V158.808Zm-.37-7.638a3.432,3.432,0,0,1,6.864,0,3.216,3.216,0,0,1-3.5,3.432A3.162,3.162,0,0,1,52.523,151.17ZM37.382,169.878c-.942-3.735-3.163-11.877-4-15.814h-.067c-.707,3.937-2.49,10.6-3.9,15.814Zm-9.354,5.451L25.37,185.423c-.067.269-.168.336-.5.336H19.919c-.336,0-.4-.1-.336-.5l9.556-33.445a10.9,10.9,0,0,0,.336-2.793c0-.235.1-.336.269-.336H36.81c.235,0,.336.067.4.336l10.7,36.305c.067.269,0,.437-.269.437H42.059c-.269,0-.437-.067-.5-.3L38.8,175.329H28.028Z" fill="#f3685f"/>
  </g>
</svg>
