<svg xmlns="http://www.w3.org/2000/svg" width="84.299" height="84.22" viewBox="0 0 84.299 84.22">
  <g id="brandingicon" transform="translate(-1.822 -1.85)">
    <path id="layer1" d="M45.88,30.74,18,2.859,2.822,18.034,30.588,46.017" transform="translate(0 0.004)" fill="#f3685f" stroke="#202020" stroke-linecap="round" stroke-linejoin="round" stroke-miterlimit="10" stroke-width="2"/>
    <path id="layer1-2" data-name="layer1" d="M39.083,51.986l27.475,27.69L82,64.24,54.425,36.67m3.014,33.644L65.19,62.56M18.478,31.219l8.539-8.542M48.924,61.9l6.349-6.348M9.588,22.261,15.854,16" transform="translate(2.776 5.394)" fill="#f3685f" stroke="#202020" stroke-linecap="round" stroke-linejoin="round" stroke-miterlimit="10" stroke-width="2"/>
    <path id="layer2" d="M10.276,45.678,21.594,57" transform="translate(3.058 17.572)" fill="#f3685f" stroke="#202020" stroke-linecap="round" stroke-linejoin="round" stroke-miterlimit="10" stroke-width="2"/>
    <path id="layer2-2" data-name="layer2" d="M24.212,74.567,75.833,23.006,64.514,11.687,12.895,63.25l-9,20.319,20.319-9ZM75.833,23.006l8.848-8.838L73.362,2.85l-8.848,8.837" transform="translate(0.439)" fill="#f3685f" stroke="#202020" stroke-linecap="round" stroke-linejoin="round" stroke-miterlimit="10" stroke-width="2"/>
  </g>
</svg>
