<svg id="fiverricon" xmlns="http://www.w3.org/2000/svg" width="35.89" height="38.387" viewBox="0 0 35.89 38.387">
  <g id="Group_7" data-name="Group 7" transform="translate(0 0)">
    <path id="Path_23" data-name="Path 23" d="M72.067,57.189V38H52.925V36.8a3.6,3.6,0,0,1,3.589-3.6H60.1V26H56.514A10.794,10.794,0,0,0,45.747,36.8V38H40.962v7.2h4.785v12H40.962v7.2H57.711v-7.2H52.925v-12h12.03v12H60.1v7.2H76.852v-7.2Z" transform="translate(-40.962 -26)" fill="#3d3d3d"/>
    <path id="Path_24" data-name="Path 24" d="M331.269,33.2a3.6,3.6,0,1,0-3.589-3.6A3.594,3.594,0,0,0,331.269,33.2Z" transform="translate(-303.753 -26.001)" fill="#3d3d3d"/>
  </g>
</svg>
