<svg xmlns="http://www.w3.org/2000/svg" width="38.518" height="38.518" viewBox="0 0 38.518 38.518">
  <path id="instaicon" d="M19.259,3.471c5.142,0,5.752.019,7.784.112,5.219.238,7.657,2.714,7.895,7.894.093,2.03.111,2.64.111,7.782s-.019,5.752-.111,7.782c-.239,5.176-2.671,7.657-7.895,7.894-2.032.093-2.638.112-7.784.112s-5.752-.019-7.782-.112c-5.232-.239-7.657-2.727-7.895-7.9-.093-2.03-.112-2.638-.112-7.782s.021-5.75.112-7.782C3.821,6.3,6.253,3.82,11.477,3.582c2.032-.091,2.64-.111,7.782-.111Zm0-3.471c-5.23,0-5.885.022-7.939.116C4.325.437.438,4.317.117,11.318.022,13.374,0,14.028,0,19.259S.022,25.146.116,27.2c.321,6.994,4.2,10.881,11.2,11.2,2.056.093,2.711.116,7.941.116S25.146,38.5,27.2,38.4c6.988-.321,10.884-4.2,11.2-11.2.095-2.054.117-2.711.117-7.941s-.022-5.885-.116-7.939C38.088,4.332,34.2.438,27.2.117,25.146.022,24.489,0,19.259,0Zm0,9.369a9.89,9.89,0,1,0,9.889,9.889A9.89,9.89,0,0,0,19.259,9.369Zm0,16.309a6.42,6.42,0,1,1,6.42-6.42A6.419,6.419,0,0,1,19.259,25.678ZM29.54,6.668a2.311,2.311,0,1,0,2.309,2.311A2.312,2.312,0,0,0,29.54,6.668Z" fill="#3d3d3d"/>
</svg>
