<svg xmlns="http://www.w3.org/2000/svg" width="80.753" height="78.734" viewBox="0 0 80.753 78.734">
  <g id="photoshopicon" transform="translate(-358 -6651)">
    <path id="Path_594" data-name="Path 594" d="M24.8,155.549H98.827v72H24.8Z" transform="translate(336.197 6498.451)" fill="#fff"/>
    <path id="Path_595" data-name="Path 595" d="M3.365,134.111H77.388v72H3.365ZM0,209.48H80.753V130.746H0Zm54.441-46.433c-2.658,0-3.567,1.346-3.567,2.456,0,1.211.606,2.052,4.172,3.9,5.283,2.557,6.931,5.013,6.931,8.614,0,5.383-4.1,8.277-9.657,8.277a14.638,14.638,0,0,1-6.9-1.447c-.235-.1-.269-.269-.269-.538v-4.946c0-.336.168-.437.4-.269a12.489,12.489,0,0,0,6.763,1.985c2.658,0,3.769-1.11,3.769-2.625,0-1.211-.774-2.288-4.172-4.038-4.778-2.288-6.763-4.61-6.763-8.479,0-4.341,3.4-7.941,9.287-7.941a15.472,15.472,0,0,1,6.023.942.745.745,0,0,1,.336.673v4.61c0,.269-.168.438-.5.336A11.366,11.366,0,0,0,54.441,163.047Zm-28.937,4c.774.067,1.38.067,2.725.067,3.937,0,7.638-1.38,7.638-6.729,0-4.273-2.658-6.427-7.133-6.427-1.346,0-2.625.067-3.23.1Zm-5.989-17.867c0-.236.471-.4.74-.4,2.154-.1,5.35-.168,8.681-.168,9.32,0,12.954,5.114,12.954,11.642,0,8.546-6.191,12.214-13.8,12.214-1.279,0-1.716-.067-2.625-.067v12.92c0,.269-.1.4-.4.4H19.919c-.269,0-.4-.1-.4-.4V149.185Z" transform="translate(358 6520.254)" fill="#f3685f"/>
  </g>
</svg>
