<svg xmlns="http://www.w3.org/2000/svg" width="92.824" height="85.642" viewBox="0 0 92.824 85.642">
  <g id="uiuxdesignicon" transform="translate(-772.62 -6032.058)">
    <g id="Group_61" data-name="Group 61">
      <path id="Path_593" data-name="Path 593" d="M4177.2,6072.181l-27.767,29.021-21.57-6.275s-26.374-35.3-26.472-35.59-4.118-7.745-4.118-7.745H4177.2Z" transform="translate(-3324)" fill="#f3685f"/>
      <path id="layer2" d="M2,5H81.581V23.365H2ZM81.581,40.2V23.365M2,23.365V72.338H50.973" transform="translate(771.62 6028.058)" fill="#f3685f" stroke="#202020" stroke-linecap="round" stroke-linejoin="round" stroke-width="2"/>
      <path id="layer1" d="M68.366,27,36.534,58.679,29.8,75.973l17.447-6.581L79.079,37.713ZM36.534,58.679,47.247,69.392" transform="translate(785.365 6040.727)" fill="#f3685f" stroke="#202020" stroke-linecap="round" stroke-linejoin="round" stroke-width="2"/>
    </g>
    <circle id="Ellipse_10" data-name="Ellipse 10" cx="2.5" cy="2.5" r="2.5" transform="translate(781 6039)" fill="#262626"/>
    <circle id="Ellipse_11" data-name="Ellipse 11" cx="2.5" cy="2.5" r="2.5" transform="translate(794 6039)" fill="#262626"/>
    <circle id="Ellipse_12" data-name="Ellipse 12" cx="2.5" cy="2.5" r="2.5" transform="translate(807 6039)" fill="#262626"/>
  </g>
</svg>
