<svg xmlns="http://www.w3.org/2000/svg" width="53.685" height="38.518" viewBox="0 0 53.685 38.518">
  <path id="upworkicon" d="M45.873,17.983c-5.783,0-10.148,3.819-11.894,9.82a52.806,52.806,0,0,1-6.11-13.2h-6.11V30.64a5.783,5.783,0,0,1-11.566,0V14.709H4.3v16.04a11.894,11.894,0,1,0,23.787,0V28.021a56.182,56.182,0,0,0,4.365,7.311L28.633,53.118h6.22l2.619-12.985a15.2,15.2,0,0,0,8.4,2.4,12.277,12.277,0,0,0,0-24.551Zm0,18.44A11.149,11.149,0,0,1,39,33.7l.655-2.4v-.109c.436-2.619,1.855-6.983,6.329-6.983a6.1,6.1,0,0,1,6.11,6.11A6.417,6.417,0,0,1,45.873,36.423Z" transform="translate(-4.3 -14.6)" fill="#3d3d3d"/>
</svg>
