<svg xmlns="http://www.w3.org/2000/svg" width="79.586" height="78.734" viewBox="0 0 79.586 78.734">
  <g id="visual-studio-code-1" transform="translate(-2.725 -13.961)">
    <path id="Path_601" data-name="Path 601" d="M3.482,252.6s-1.938-1.4.388-3.263l5.419-4.846a2.3,2.3,0,0,1,3.19-.21l50.011,37.864V300.3s-.024,2.851-3.683,2.536Z" transform="translate(0 -211.182)" fill="#f3685f"/>
    <path id="Path_602" data-name="Path 602" d="M18.29,498.8,5.4,510.519s-1.325.985,0,2.746l5.985,5.444s1.421,1.526,3.521-.21l13.666-10.362Z" transform="translate(-1.918 -445.679)" fill="#f3685f"/>
    <path id="Path_603" data-name="Path 603" d="M311.349,60.766,334.99,42.715l-.153-18.06s-1.01-3.941-4.378-1.89L299,51.4Z" transform="translate(-272.346 -7.549)" fill="#f3685f"/>
    <path id="Path_604" data-name="Path 604" d="M689.194,91.679a3.251,3.251,0,0,0,3.037.945l18.423-9.078c2.358-1.607,2.027-3.6,2.027-3.6V25.732a3.624,3.624,0,0,0-2.439-3.206l-15.968-7.7c-3.489-2.156-5.775.388-5.775.388s2.94-2.116,4.378,1.89V88.787a3.258,3.258,0,0,1-.315,1.413c-.42.848-1.333,1.64-3.521,1.308Z" transform="translate(-630.387)" fill="#f3685f"/>
  </g>
</svg>
