<svg xmlns="http://www.w3.org/2000/svg" width="108.273" height="27.232" viewBox="0 0 108.273 27.232">
  <path id="webflow" d="M34.961,10.649c0-1.942-1.889-4.005-5.157-4.005-3.67,0-7.7,2.692-8.318,8.064-.63,5.425,2.746,7.836,6.148,7.836A9.049,9.049,0,0,0,34.64,19.45a3.1,3.1,0,0,0-3.978-.857,4.072,4.072,0,0,1-2.1.509c-1.313,0-2.652-.589-2.652-3.041,8.412-.83,9.055-3.469,9.055-5.412Zm-4.166.321c-.054.6-.295,1.634-4.554,2.21.9-3.188,2.612-3.429,3.4-3.429A1.113,1.113,0,0,1,30.8,10.971Zm-14.252.522s-1.808,5.68-1.956,6.148c-.054-.482-1.38-10.676-1.38-10.676-3.081,0-4.728,2.2-5.6,4.514,0,0-2.2,5.693-2.384,6.175-.013-.442-.335-6.108-.335-6.108A5.034,5.034,0,0,0,0,6.979L2.545,22.423c3.228-.013,4.97-2.2,5.88-4.514,0,0,1.942-5.023,2.023-5.251.013.214,1.393,9.765,1.393,9.765,3.242,0,4.983-2.049,5.921-4.286L22.3,6.979c-3.2,0-4.889,2.183-5.76,4.514ZM46.856,6.617A6.135,6.135,0,0,0,42.047,9.3V9.283L43.2,0c-2.652,0-4.809,2.3-5.224,5.733L35.966,22.3a5.055,5.055,0,0,0,4.019-1.567,4.449,4.449,0,0,0,3.67,1.808c4.474,0,7.541-5.2,7.541-10.073-.027-4.447-2.183-5.854-4.34-5.854Zm-.415,7.97c-.469,2.719-1.982,4.568-3.443,4.568a2.97,2.97,0,0,1-2.1-.656,19.042,19.042,0,0,1,.991-5.1c.536-1.259,1.808-3.268,3.134-3.268,1.3,0,1.889,1.728,1.42,4.461ZM62.368,6.979H59.247l.013-.161c.214-2.036.7-3.108,2.291-3.282A1.671,1.671,0,0,0,63.238,2.25c.094-.482.388-2.157.388-2.157-6.269-.04-8.238,2.666-8.747,6.791l-.013.094H54.8a2.838,2.838,0,0,0-2.331,2.612l-.067.536h2.09L52.737,24.62l-.536,2.6c.067,0,.147.013.214.013,2.934-.107,4.809-2.425,5.224-5.787l1.366-11.319h.978a2.677,2.677,0,0,0,2.291-2.572ZM78.6,6.711a8.566,8.566,0,0,0-8.05,6.818c-1.045,4.166.536,9.1,5.84,9.1s8.345-5.13,8.345-9.4c0-4.246-2.88-6.51-6.135-6.51Zm1.46,7.742c-.188,1.889-1.018,4.755-3.3,4.755S74.8,15.86,75.026,14.266c.241-1.7,1.192-4.126,3.242-4.126,1.835,0,2.009,2.183,1.795,4.313Zm22.477-2.96s-1.808,5.68-1.956,6.148c-.054-.482-1.38-10.676-1.38-10.676-3.081,0-4.728,2.2-5.6,4.514,0,0-2.2,5.693-2.384,6.175-.013-.442-.335-6.108-.335-6.108A5.034,5.034,0,0,0,86,6.979l2.532,15.445c3.228-.013,4.97-2.2,5.88-4.514,0,0,1.942-5.023,2.009-5.251.027.214,1.393,9.765,1.393,9.765,3.242,0,4.983-2.049,5.921-4.286l4.541-11.158c-3.188,0-4.876,2.183-5.733,4.514ZM65.315.094,62.689,21.271l-.536,2.612c.067,0,.147.013.214.013,2.826-.04,4.836-2.518,5.211-5.639L69.092,6.108C69.548,2.4,67.337.094,65.315.094Z" fill="#f3685f"/>
</svg>
