<svg id="wordpressicon" xmlns="http://www.w3.org/2000/svg" width="78.738" height="78.736" viewBox="0 0 78.738 78.736">
  <g id="Group_63" data-name="Group 63">
    <path id="Path_609" data-name="Path 609" d="M8.708,42.479a33.779,33.779,0,0,0,19.034,30.4L11.632,28.734A33.643,33.643,0,0,0,8.708,42.479Zm56.571-1.7a17.781,17.781,0,0,0-2.785-9.314c-1.712-2.782-3.316-5.138-3.316-7.92a5.848,5.848,0,0,1,5.67-5.994c.15,0,.292.019.438.027A33.765,33.765,0,0,0,14.263,23.93c.792.024,1.54.04,2.173.04,3.532,0,9-.429,9-.429a1.4,1.4,0,0,1,.217,2.782s-1.83.215-3.866.322l12.3,36.581L41.477,41.06,36.215,26.645c-1.819-.107-3.541-.322-3.541-.322a1.4,1.4,0,0,1,.213-2.782s5.577.429,8.9.429c3.532,0,9-.429,9-.429A1.4,1.4,0,0,1,51,26.323s-1.833.215-3.865.322l12.2,36.3,3.368-11.257c1.461-4.671,2.572-8.026,2.572-10.917Z" transform="translate(-3.112 -3.112)" fill="#f3685f"/>
    <path id="Path_610" data-name="Path 610" d="M56.549,55.2,46.416,84.646a33.781,33.781,0,0,0,20.755-.538,2.86,2.86,0,0,1-.24-.465ZM85.59,36.046a25.921,25.921,0,0,1,.227,3.473,31.857,31.857,0,0,1-2.568,12.1L72.933,81.441A33.778,33.778,0,0,0,85.59,36.046Z" transform="translate(-16.588 -12.882)" fill="#f3685f"/>
    <path id="Path_611" data-name="Path 611" d="M39.368,0a39.368,39.368,0,1,0,39.37,39.367A39.412,39.412,0,0,0,39.368,0Zm0,76.931A37.562,37.562,0,1,1,76.929,39.367,37.606,37.606,0,0,1,39.368,76.931Z" fill="#f3685f"/>
  </g>
</svg>
